<svg viewBox="0 0 15 41" xmlns="http://www.w3.org/2000/svg">
  <path d="M10.0949 41.0122C7.48164 41.0122 5.67389 40.4912 4.67156 39.4493C3.66923 38.4075 3.16806 36.794 3.16806 34.6094V27.1981C3.16806 25.9211 2.93538 24.9632 2.47002 24.3246C2.00466 23.6525 1.18131 23.2491 0 23.1145V18.3757C1.3245 18.2075 2.18365 17.7536 2.57742 17.0144C2.97117 16.2412 3.16806 15.0986 3.16806 13.586V6.88072C3.16806 4.69603 3.66923 3.08272 4.67156 2.0408C5.67389 0.965272 7.48164 0.42749 10.0949 0.42749H14.3734V6.04837H13.1795H11.9857C11.0907 6.04837 10.4822 6.25004 10.16 6.65339C9.87363 7.0231 9.73044 7.64487 9.73044 8.51875V16.006C9.73044 17.0479 9.49776 17.9891 9.03238 18.8292C8.60282 19.6359 7.92267 20.2745 6.99195 20.745C7.92267 21.2156 8.60282 21.871 9.03238 22.7113C9.49776 23.5181 9.73044 24.4422 9.73044 25.4842V32.9713C9.73044 33.8116 9.87363 34.4334 10.16 34.8368C10.4822 35.2064 11.0907 35.3913 11.9857 35.3913H14.3734V41.0122H10.0949Z" fill="#41BD9B" />
</svg>