<svg viewBox="0 0 334 325" xmlns="http://www.w3.org/2000/svg">
  <path d="M85.5677 324.384C63.4172 324.384 48.0939 320.22 39.5978 311.892C31.1017 303.564 26.8537 290.669 26.8537 273.208V213.972C26.8537 203.764 24.8814 196.108 20.9368 191.003C16.9922 185.631 10.0132 182.407 0 181.332V143.454C11.227 142.111 18.5093 138.484 21.8471 132.574C25.1848 126.395 26.8537 117.262 26.8537 105.173V51.579C26.8537 34.1174 31.1017 21.2226 39.5978 12.8948C48.0939 4.29825 63.4172 0 85.5677 0H121.834V44.9264H111.715H101.595C94.0091 44.9264 88.8507 46.5382 86.1198 49.7619C83.6924 52.7169 82.4787 57.6868 82.4787 64.6715V124.515C82.4787 132.843 80.5064 140.365 76.5618 147.081C72.9206 153.528 67.1554 158.632 59.2662 162.393C67.1554 166.154 72.9206 171.393 76.5618 178.109C80.5064 184.556 82.4787 191.944 82.4787 200.272V260.115C82.4787 266.831 83.6924 271.801 86.1198 275.025C88.8507 277.98 94.0091 279.457 101.595 279.457H121.834V324.384H85.5677Z" fill="#0BDDA3" />
  <path d="M320.027 229.489C329.023 209.155 333.521 186.238 333.521 160.739C333.521 128.462 326.292 100.381 311.835 76.4964C297.377 52.2887 277.136 33.5681 251.112 20.3345C225.41 6.77817 195.209 0 160.511 0H146.201L146.201 45.5105L160.511 45.5105C184.928 45.5105 206.293 50.3521 224.606 60.0352C242.92 69.7183 257.217 83.2746 267.498 100.704C277.779 117.811 282.919 137.823 282.919 160.739C282.919 179.137 279.706 195.76 273.281 210.607C267.176 225.455 258.341 237.881 246.775 247.887C235.53 257.893 222.358 265.639 207.257 271.127C192.157 276.614 175.772 279.357 158.101 279.357H146.201L146.201 324.384H158.101C183.161 324.384 206.293 320.672 227.498 313.248C248.703 305.824 267.176 295.011 282.919 280.81C298.983 266.608 311.353 249.501 320.027 229.489Z" fill="#121C29" />
</svg>